<svg width="130" height="28" viewBox="0 0 130 28" fill="none" xmlns="http://www.w3.org/2000/svg">
<g clip-path="url(#clip0_751_3)">
<mask id="mask0_751_3" style="mask-type:luminance" maskUnits="userSpaceOnUse" x="0" y="0" width="130" height="28">
<path d="M130 0H0V28H130V0Z" fill="white"/>
</mask>
<g mask="url(#mask0_751_3)">
<path d="M20.9357 22.5105L16.6879 28H11.2219V22.5105H13.8507V0.51123H20.9357V22.5105ZM7.48701 22.5105H10.0998V28H4.64981L0.385986 22.5105V0.51123H7.48701V22.5105ZM44.9638 28H37.43L24.5424 0.51123H32.0281L44.9638 28ZM24.5424 28V3.12131L30.7137 16.1925V28H24.5424ZM44.9638 0.51123V25.3899L38.7925 12.2566V0.51123H44.9638ZM48.3941 22.1376H50.5261V6.35285H48.3941V0.51123H59.743V6.35285H57.6111V22.1376H59.743V28H48.3941V22.1376ZM76.3172 28V17.7046H67.1168L62.8527 12.1945V6.0007L67.1168 0.51123H69.5211V10.268H79.2987L83.4186 15.7782V22.5105L79.1707 28H76.3172ZM70.6432 5.46211V0.51123H79.1549L82.8415 5.29639V8.2172H76.3172V5.46211H70.6432ZM62.8527 19.7554H69.938V23.0284H75.1952V28H66.4274L62.8527 22.5105V19.7554ZM93.9499 16.7103V28H86.8649V0.51123H93.9499V11.4073H100.73V16.7103H93.9499ZM95.072 5.83497V0.51123H106.148V8.46578H99.4802V5.83497H95.072ZM95.072 28V22.5105H99.0633V19.7554H106.148V28H95.072ZM123.011 12.9402L119.228 5.79354L121.713 0.51123H129.311L123.011 12.9402ZM107.27 28L114.051 15.1981L117.85 22.6555L115.365 28H107.27ZM129.615 28H121.889L107.703 0.51123H115.349L129.615 28Z" fill="#EFEFEF"/>
</g>
</g>
<defs>
<clipPath id="clip0_751_3">
<rect width="130" height="28" fill="white"/>
</clipPath>
</defs>
</svg>
